{
    "asset" : {
        "generator" : "Khronos glTF Blender I/O v1.0.5",
        "version" : "2.0"
    },
    "extensionsUsed" : [
        "KHR_lights_punctual"
    ],
    "extensionsRequired" : [
        "KHR_lights_punctual"
    ],
    "extensions" : {
        "KHR_lights_punctual" : {
            "lights" : [
                {
                    "color" : [
                        1,
                        1,
                        1
                    ],
                    "intensity" : 1000,
                    "type" : "point",
                    "name" : "Light"
                }
            ]
        }
    },
    "scene" : 0,
    "scenes" : [
        {
            "name" : "Scene",
            "nodes" : [
                0,
                2,
                3,
                4,
                5,
                6,
                7
            ]
        }
    ],
    "nodes" : [
        {
            "mesh" : 0,
            "name" : "Case",
            "scale" : [
                0.252350777387619,
                0.252350777387619,
                0.252350777387619
            ],
            "translation" : [
                -0.04128085449337959,
                1.2660099267959595,
                0.3166050910949707
            ]
        },
        {
            "extensions" : {
                "KHR_lights_punctual" : {
                    "light" : 0
                }
            },
            "name" : "Light_Orientation",
            "rotation" : [
                -0.7071067690849304,
                0,
                0,
                0.7071067690849304
            ]
        },
        {
            "children" : [
                1
            ],
            "name" : "Light",
            "rotation" : [
                0.16907575726509094,
                0.7558803558349609,
                -0.27217137813568115,
                0.570947527885437
            ],
            "scale" : [
                0.3007112145423889,
                0.30071115493774414,
                0.3007112741470337
            ],
            "translation" : [
                0.6420615315437317,
                2.639500379562378,
                1.2046937942504883
            ]
        },
        {
            "name" : "Camera",
            "rotation" : [
                0.483536034822464,
                0.33687159419059753,
                -0.20870360732078552,
                0.7804827094078064
            ],
            "scale" : [
                0.3007112145423889,
                0.3007112145423889,
                0.3007112145423889
            ],
            "translation" : [
                2.1536991596221924,
                2.7641875743865967,
                2.4224801063537598
            ]
        },
        {
            "mesh" : 1,
            "name" : "Kabel",
            "scale" : [
                -0.015503047965466976,
                -0.015503047965466976,
                -0.015503047965466976
            ],
            "translation" : [
                -0.12033236026763916,
                1.0605921745300293,
                0.06726965308189392
            ]
        },
        {
            "mesh" : 2,
            "name" : "Plug",
            "rotation" : [
                -0.01229177974164486,
                -0.021414048969745636,
                0.5460183620452881,
                0.837409257888794
            ],
            "scale" : [
                -0.03310391679406166,
                -0.03310392424464226,
                -0.03310391679406166
            ],
            "translation" : [
                0.42438915371894836,
                1.043656587600708,
                0.16366052627563477
            ]
        },
        {
            "mesh" : 3,
            "name" : "Sk\u00e6rm",
            "scale" : [
                0.05446748808026314,
                0.05446748808026314,
                0.05446748808026314
            ],
            "translation" : [
                -0.013449296355247498,
                1.3384220600128174,
                0.20000684261322021
            ]
        },
        {
            "mesh" : 4,
            "name" : "Gr\u00f8n bar",
            "rotation" : [
                0.49996548891067505,
                -0.500034511089325,
                -0.49996545910835266,
                0.500034511089325
            ],
            "scale" : [
                0.004141677170991898,
                0.036947283893823624,
                0.07479991018772125
            ],
            "translation" : [
                0.011843577027320862,
                1.434593677520752,
                0.22986507415771484
            ]
        }
    ],
    "materials" : [
        {
            "doubleSided" : true,
            "name" : "case mate",
            "pbrMetallicRoughness" : {}
        },
        {
            "doubleSided" : true,
            "name" : "kabel",
            "pbrMetallicRoughness" : {}
        },
        {
            "doubleSided" : true,
            "name" : "plug mate",
            "pbrMetallicRoughness" : {}
        },
        {
            "doubleSided" : true,
            "name" : "kabel.001",
            "pbrMetallicRoughness" : {}
        },
        {
            "doubleSided" : true,
            "emissiveFactor" : [
                0.09219740331172943,
                1,
                0.15458303689956665
            ],
            "name" : "gr\u00f8n bar",
            "pbrMetallicRoughness" : {}
        }
    ],
    "meshes" : [
        {
            "name" : "Cube",
            "primitives" : [
                {
                    "attributes" : {
                        "POSITION" : 0,
                        "NORMAL" : 1,
                        "TEXCOORD_0" : 2
                    },
                    "indices" : 3,
                    "material" : 0
                }
            ]
        },
        {
            "name" : "Cube.002",
            "primitives" : [
                {
                    "attributes" : {
                        "POSITION" : 4,
                        "NORMAL" : 5,
                        "TEXCOORD_0" : 6
                    },
                    "indices" : 7,
                    "material" : 1
                }
            ]
        },
        {
            "name" : "Cube.006",
            "primitives" : [
                {
                    "attributes" : {
                        "POSITION" : 8,
                        "NORMAL" : 9,
                        "TEXCOORD_0" : 10
                    },
                    "indices" : 11,
                    "material" : 2
                }
            ]
        },
        {
            "name" : "Cube.001",
            "primitives" : [
                {
                    "attributes" : {
                        "POSITION" : 12,
                        "NORMAL" : 13,
                        "TEXCOORD_0" : 14
                    },
                    "indices" : 15,
                    "material" : 3
                }
            ]
        },
        {
            "name" : "Plane",
            "primitives" : [
                {
                    "attributes" : {
                        "POSITION" : 16,
                        "NORMAL" : 17,
                        "TEXCOORD_0" : 18
                    },
                    "indices" : 19,
                    "material" : 4
                }
            ]
        }
    ],
    "accessors" : [
        {
            "bufferView" : 0,
            "componentType" : 5126,
            "count" : 1240,
            "max" : [
                1,
                1,
                -0.3499802350997925
            ],
            "min" : [
                -0.5580427646636963,
                -1,
                -1.1491211652755737
            ],
            "type" : "VEC3"
        },
        {
            "bufferView" : 1,
            "componentType" : 5126,
            "count" : 1240,
            "type" : "VEC3"
        },
        {
            "bufferView" : 2,
            "componentType" : 5126,
            "count" : 1240,
            "type" : "VEC2"
        },
        {
            "bufferView" : 3,
            "componentType" : 5123,
            "count" : 2112,
            "type" : "SCALAR"
        },
        {
            "bufferView" : 4,
            "componentType" : 5126,
            "count" : 600,
            "max" : [
                1.1791250705718994,
                49.07379913330078,
                4.9524078369140625
            ],
            "min" : [
                -35.18580627441406,
                -53.18617248535156,
                -8.576461791992188
            ],
            "type" : "VEC3"
        },
        {
            "bufferView" : 5,
            "componentType" : 5126,
            "count" : 600,
            "type" : "VEC3"
        },
        {
            "bufferView" : 6,
            "componentType" : 5126,
            "count" : 600,
            "type" : "VEC2"
        },
        {
            "bufferView" : 7,
            "componentType" : 5123,
            "count" : 912,
            "type" : "SCALAR"
        },
        {
            "bufferView" : 8,
            "componentType" : 5126,
            "count" : 250,
            "max" : [
                1.3287023305892944,
                -1.7423068284988403,
                1.3513827323913574
            ],
            "min" : [
                -1.3726348876953125,
                -8.230905532836914,
                -1.2670425176620483
            ],
            "type" : "VEC3"
        },
        {
            "bufferView" : 9,
            "componentType" : 5126,
            "count" : 250,
            "type" : "VEC3"
        },
        {
            "bufferView" : 10,
            "componentType" : 5126,
            "count" : 250,
            "type" : "VEC2"
        },
        {
            "bufferView" : 11,
            "componentType" : 5123,
            "count" : 384,
            "type" : "SCALAR"
        },
        {
            "bufferView" : 12,
            "componentType" : 5126,
            "count" : 24,
            "max" : [
                1.8851771354675293,
                1.4196909666061401,
                0.5557803511619568
            ],
            "min" : [
                -0.9590597152709961,
                -0.5805743336677551,
                0.4242495894432068
            ],
            "type" : "VEC3"
        },
        {
            "bufferView" : 13,
            "componentType" : 5126,
            "count" : 24,
            "type" : "VEC3"
        },
        {
            "bufferView" : 14,
            "componentType" : 5126,
            "count" : 24,
            "type" : "VEC2"
        },
        {
            "bufferView" : 15,
            "componentType" : 5123,
            "count" : 36,
            "type" : "SCALAR"
        },
        {
            "bufferView" : 16,
            "componentType" : 5126,
            "count" : 12,
            "max" : [
                1,
                1.1551539280674206e-08,
                1
            ],
            "min" : [
                -1,
                -6.1608207424512784e-09,
                -1
            ],
            "type" : "VEC3"
        },
        {
            "bufferView" : 17,
            "componentType" : 5126,
            "count" : 12,
            "type" : "VEC3"
        },
        {
            "bufferView" : 18,
            "componentType" : 5126,
            "count" : 12,
            "type" : "VEC2"
        },
        {
            "bufferView" : 19,
            "componentType" : 5123,
            "count" : 18,
            "type" : "SCALAR"
        }
    ],
    "bufferViews" : [
        {
            "buffer" : 0,
            "byteLength" : 14880,
            "byteOffset" : 0
        },
        {
            "buffer" : 0,
            "byteLength" : 14880,
            "byteOffset" : 14880
        },
        {
            "buffer" : 0,
            "byteLength" : 9920,
            "byteOffset" : 29760
        },
        {
            "buffer" : 0,
            "byteLength" : 4224,
            "byteOffset" : 39680
        },
        {
            "buffer" : 0,
            "byteLength" : 7200,
            "byteOffset" : 43904
        },
        {
            "buffer" : 0,
            "byteLength" : 7200,
            "byteOffset" : 51104
        },
        {
            "buffer" : 0,
            "byteLength" : 4800,
            "byteOffset" : 58304
        },
        {
            "buffer" : 0,
            "byteLength" : 1824,
            "byteOffset" : 63104
        },
        {
            "buffer" : 0,
            "byteLength" : 3000,
            "byteOffset" : 64928
        },
        {
            "buffer" : 0,
            "byteLength" : 3000,
            "byteOffset" : 67928
        },
        {
            "buffer" : 0,
            "byteLength" : 2000,
            "byteOffset" : 70928
        },
        {
            "buffer" : 0,
            "byteLength" : 768,
            "byteOffset" : 72928
        },
        {
            "buffer" : 0,
            "byteLength" : 288,
            "byteOffset" : 73696
        },
        {
            "buffer" : 0,
            "byteLength" : 288,
            "byteOffset" : 73984
        },
        {
            "buffer" : 0,
            "byteLength" : 192,
            "byteOffset" : 74272
        },
        {
            "buffer" : 0,
            "byteLength" : 72,
            "byteOffset" : 74464
        },
        {
            "buffer" : 0,
            "byteLength" : 144,
            "byteOffset" : 74536
        },
        {
            "buffer" : 0,
            "byteLength" : 144,
            "byteOffset" : 74680
        },
        {
            "buffer" : 0,
            "byteLength" : 96,
            "byteOffset" : 74824
        },
        {
            "buffer" : 0,
            "byteLength" : 36,
            "byteOffset" : 74920
        }
    ],
    "buffers" : [
        {
            "byteLength" : 74956,
            "uri" : "data:application/octet-stream;base64,"
        }
    ]
}
